<svg xmlns="http://www.w3.org/2000/svg" viewBox="0 0 1080 1080"><defs><style>.faa49450-7cdc-419e-b0a6-18bd47261baf{fill:#fff;}</style></defs><g id="bba51733-cb92-4343-9856-b59e729903b1" data-name="Capa 2"><path class="faa49450-7cdc-419e-b0a6-18bd47261baf" d="M88.2,504.2h0l-.3.2-.6.5-.4.3a1,1,0,0,0-.5.4l-.4.3a1,1,0,0,0-.5.4l-.4.2c-.1.2-.3.3-.4.4l-.3.3-.4.3-.3.3-.3.3-.3.2-.3.4h-.1l-.5.5.5.4c0,.1.1.1.1.2l.3.3.3.2.3.4.3.2.4.4.3.2c.1.2.3.3.4.4l.4.3.5.4.4.3.5.4.4.3.6.4.3.2h0V504.2Z"/><path class="faa49450-7cdc-419e-b0a6-18bd47261baf" d="M905.1,581.3h0Z"/><path class="faa49450-7cdc-419e-b0a6-18bd47261baf" d="M856.7,641.3v0h0Z"/><path class="faa49450-7cdc-419e-b0a6-18bd47261baf" d="M847.9,594l.3.6a1.4,1.4,0,0,1-.2-.6h-.1Z"/><path class="faa49450-7cdc-419e-b0a6-18bd47261baf" d="M457.4,828.9h0l.9.4Z"/><path class="faa49450-7cdc-419e-b0a6-18bd47261baf" d="M955.9,514.3h0l.3-.2.6-.4.4-.3.5-.4.4-.3.5-.4.4-.3.4-.4.3-.2c.1-.2.3-.3.4-.4l.3-.2.3-.3c.1-.1.2-.2.2-.3l.4-.3a.3.3,0,0,0,.1-.2l.5-.4-.5-.5v-.2l-.4-.3c0-.1-.1-.1-.2-.2l-.3-.3-.3-.3-.4-.3-.3-.3-.4-.3-.4-.3-.5-.4-.4-.3a1,1,0,0,0-.5-.4l-.4-.3-.6-.5-.3-.2h0v10.1Z"/><path class="faa49450-7cdc-419e-b0a6-18bd47261baf" d="M820,800.7l-1.7.4-6.1,1.4-3.6.8h-.5l-3.5.8-.7.2-3.5.7-.9.2-3.5.7h-.3l-1.9.4-11.6,2.2A397.4,397.4,0,0,1,732,845.9l3.4,6.2h0l1.4,2.6,9.7,17.8a429.1,429.1,0,0,0,77.4-61.4c4.9-4.9,9.7-10,14.4-15.1l-13.5,3.5Z"/><path class="faa49450-7cdc-419e-b0a6-18bd47261baf" d="M729.6,839.2l-1,.6h0Z"/><path class="faa49450-7cdc-419e-b0a6-18bd47261baf" d="M605.1,414.8h-.6c-27.1-1-54.8-1.4-82.5-1.4H494.2l2,.9,5.5,2.2h.3l3.4,1.3.8.3,3.8,1.4.8.2,3.6,1.3.6.2,4.2,1.4,1,.4,4.4,1.4h.1l4.5,1.4,1.1.4,4.6,1.4.8.2,4.3,1.2.7.2h0l.9.3c8.2,2.4,17.2,4.7,26.7,7.1,105.1,2,202.6,10.7,278.1,25,24.4,4.7,46,9.8,64.2,15.4-.2-2.5-.4-5-.7-7.5h0a19.5,19.5,0,0,0-.2-2.5l-.6-4.8c-.1-1.2-.3-2.5-.4-3.7s-.5-3.1-.7-4.7-.1-1.1-.2-1.6h0c-.2-1.5-.4-3-.7-4.4a30.6,30.6,0,0,0-.5-3.2c-16.2-4.5-34.4-8.6-54.6-12.5-53-10-116.4-17.3-185.5-21.6C646.6,412.5,626.1,413.9,605.1,414.8Z"/><path class="faa49450-7cdc-419e-b0a6-18bd47261baf" d="M133.5,477.3c18.1-5.6,39.8-10.7,64.2-15.4,50.4-9.5,110.6-16.6,176.3-20.8-1.1-1.6-2.2-3.2-3.1-4.7a23.9,23.9,0,0,1-1.3-2.1l-.2-.2-1.9-3.3a3,3,0,0,1-.4-.8c-.6-.9-1.1-1.8-1.6-2.7l-.5-1-1.8-3.4h0c-.6-1.1-1.1-2.3-1.7-3.5l-.2-.4c-.7-1.5-1.4-3.1-2-4.6a20.4,20.4,0,0,1-.9-2.2c-61.7,4.4-118.3,11.2-166.3,20.3-20.2,3.9-38.4,8-54.6,12.5a30.6,30.6,0,0,0-.5,3.2c-.3,1.4-.5,2.9-.7,4.4h0a8.8,8.8,0,0,0-.2,1.6c-.3,1.6-.5,3.2-.7,4.7s-.3,2.5-.4,3.7l-.6,4.8-.3,2.5h.1C133.9,472.3,133.7,474.8,133.5,477.3Z"/><path class="faa49450-7cdc-419e-b0a6-18bd47261baf" d="M911,353.9l-1.6,1-1.7.9-1.8,1a9.5,9.5,0,0,1-1.7,1l-1.9,1-1.8.9-1.9,1-.8.4-6.1,2.9h-.3a388.1,388.1,0,0,1,21.3,75.2c.5,2.6.9,5.1,1.3,7.7s.5,2.9.7,4.4c1,6.8,1.8,13.7,2.5,20.6l.6,7.5.3,4.8c.6,8.2.8,16.6.8,25s-.2,14.8-.6,22.2l7.1-2.5h.1l.4-.2,2.9-1.1,1.1-.4,2.2-.9,1.2-.4,2.1-.9,1-.4,2.9-1.3,2.4-1.1h0l3.7-1.8,3.4-1.8c.1-3.2.1-6.3.1-9.4s0-6.3-.1-9.4-.1-5.4-.2-8.1-.2-2.7-.2-4.1c-.5-10-1.3-20-2.5-29.9l-.6-4.1A420,420,0,0,0,918,349.4C915.8,350.9,913.5,352.4,911,353.9Z"/><path class="faa49450-7cdc-419e-b0a6-18bd47261baf" d="M98.7,520.5l3.7,1.8h0l2.4,1.1,2.9,1.3,1,.4,2.1.9,1.2.4,2.2.9,1.1.4,2.9,1.1.4.2h0l7.2,2.5q-.6-11.1-.6-22.2c0-8.4.2-16.8.7-25,.1-1.6.2-3.2.4-4.8s.4-5,.6-7.5c.6-6.9,1.5-13.8,2.5-20.6l.6-4.4c.4-2.6.9-5.1,1.3-7.7a402.8,402.8,0,0,1,21.3-75.2c.1-.1.1-.2.2-.2h-.4l-6.1-2.9-.8-.4-1.9-1-1.9-.9-1.8-1a9.5,9.5,0,0,1-1.7-1l-1.8-1-1.7-.9a9.5,9.5,0,0,0-1.7-1l-6.9-4.5A424.6,424.6,0,0,0,98.7,453.7c-.1,1.3-.3,2.7-.5,4.1-1.2,9.9-2,19.9-2.5,29.9-.1,1.4-.1,2.8-.2,4.1s-.2,5.4-.2,8.1-.1,6.2-.1,9.4,0,6.2.1,9.4Z"/><path class="faa49450-7cdc-419e-b0a6-18bd47261baf" d="M123.2,338.3l1.4,1.1a35,35,0,0,0,4.3,3.3l4.7,3.2a154.5,154.5,0,0,0,15.3,8.7c0,.1-.1.2-.1.4l.5-.2,6,2.8c2,1,4.1,1.9,6.3,2.8h.1c19.2,8.1,43.1,15.5,71.7,22,36.5,8.3,78.6,14.9,124.3,19.5l4.4.4,7.8.8c22,2,44.9,3.6,68.3,4.7h1.2l30.7,1.1H485l.7.3-.2-.3h8q14.3.3,28.5.3c28.1,0,55.6-.7,82.5-1.9h.6c20.9-.9,41.4-2.3,61.3-4,53.5-4.7,102.5-11.9,144.3-21.4,28.6-6.5,52.5-13.9,71.7-22,2.2-.9,4.4-1.8,6.4-2.8l6-2.8a146.6,146.6,0,0,0,20.4-12.1l4.4-3.3c13.9-11.2,20.9-23.5,20.9-36.8,0-26.3-27.3-48.5-81.3-66.4,3.1,3.8,6.2,7.8,9.2,11.7l2.5,3.3,1.9,2.6,2.4,3.4,1.9,2.6,2.4,3.4,1.8,2.7c.8,1.1,1.5,2.3,2.3,3.5l1.2,1.8,1.1,1.6c2.3,3.5,4.5,7,6.7,10.6,13.2,8.1,17.9,15.1,17.9,19.2,0,1.9-.9,4.3-3.1,7a36.5,36.5,0,0,1-5.2,5.3,44.1,44.1,0,0,1-4.5,3.5,108.2,108.2,0,0,1-15.3,9.1l-6.1,2.9-6.5,2.8A309.1,309.1,0,0,1,835.6,345l-6.8,1.9-5.9,1.6c-5.9,1.6-12.2,3.1-18.9,4.7q-23.8,5.4-50.9,9.8l-6.9,1.1-6.9,1c-64,9.6-138.9,14.7-217.3,14.7-16.5,0-32.9-.3-49.1-.7h-4l-8.2-.3-12.5-.5-4.3-.2-7.7-.3h-2.3c-25.3-1.3-49.8-3.2-73.3-5.6l-5.6-.5-7.1-.8c-39.5-4.4-75.9-10.3-107.8-17.5-28.6-6.6-50-13.4-65.9-20l-.3-.2-6.1-2.6-6.2-2.9v-.1a125.3,125.3,0,0,1-14-8.1l-1.1-.9c-1.7-1.2-3.2-2.3-4.6-3.5s-2.7-2.5-3.7-3.6a20.9,20.9,0,0,1-1.4-1.7c-2.2-2.7-3.1-5.1-3.1-7,0-4.1,4.7-11.1,17.9-19.2,2.2-3.6,4.4-7.1,6.7-10.6l1.1-1.6,1.2-1.8c.7-1.2,1.5-2.4,2.3-3.6l1.8-2.6,2.4-3.4,1.8-2.6c.9-1.1,1.7-2.3,2.5-3.4l1.9-2.6,2.5-3.3c3-4,6.1-7.9,9.2-11.7-54,17.9-81.3,40.1-81.3,66.4C103.6,315.5,110.2,327.4,123.2,338.3Z"/><path class="faa49450-7cdc-419e-b0a6-18bd47261baf" d="M226.4,255.4l13.7-3.3c31.9-7.3,68.2-13.2,107.7-17.5l-3.6-6.7-8.3-15.1-3.6-6.6c-23.7,2.8-46.2,6.2-67.3,10.2-2.9,2.5-5.7,5-8.5,7.7a8.6,8.6,0,0,0-1.4,1.3H255l-1.4,1.4-3,2.8-2.1,2.1-2.8,2.9-2.2,2.1-2.8,2.9-2.1,2.2-2.7,3a18.5,18.5,0,0,0-1.4,1.4h0Z"/><path class="faa49450-7cdc-419e-b0a6-18bd47261baf" d="M378,115.7l.5,1.2.3.8a5.6,5.6,0,0,1,.4,1.2l.3.8a4.9,4.9,0,0,1,.4,1.1l.3.9.3,1.1.3.9.3,1.1c.1.3.1.6.2.9l.3,1.2a2.9,2.9,0,0,0,.2.9,4.3,4.3,0,0,0,.2,1.1c0,.3.1.6.1.9a1.1,1.1,0,0,1,.1.5c.4,2.4.6,4.8.8,7.2l5.7-2.1a4.3,4.3,0,0,1-.1-.5h0a28.4,28.4,0,0,1-1-6.5v-1.2a22.6,22.6,0,0,1,.1-2.6,1.9,1.9,0,0,1,.1-.8,8.8,8.8,0,0,1,.2-1.7,2.9,2.9,0,0,1,.2-.9,8,8,0,0,1,.3-1.5l.3-1,.3-1.3a3.6,3.6,0,0,0,.4-.9c.2-.4.3-.9.5-1.3l.4-.9.6-1.1.5-1a6.1,6.1,0,0,1,.7-1,4.7,4.7,0,0,1,.6-.9,42.7,42.7,0,0,1,12.5-11.8c-10.4,3-20.7,6.4-30.9,10.1,1.2,2.1,2.3,4.2,3.3,6.4Z"/><path class="faa49450-7cdc-419e-b0a6-18bd47261baf" d="M808.2,244.7l-2.7-2.9-2.2-2.2-2.7-2.9-2.2-2.2-2.8-2.8-2.2-2.1-2.9-2.8-1.5-1.4h0l-1.4-1.3c-2.8-2.7-5.6-5.2-8.5-7.7-6.2-1.2-12.4-2.3-18.8-3.3,3.8,2.8,7.6,5.8,11.2,9l.2.2,4.6,4.2.7.6,4.4,4.3.7.7q2.3,2.3,4.2,4.5a2.3,2.3,0,0,1,.7.7c1.4,1.5,2.7,3,4,4.6l.3.3c.5.6,1,1.3,1.6,1.9,1.8,2.2,3.5,4.4,5.2,6.7l5.9,1.3,13.7,3.3c-2.7-3.1-5.4-6.2-8.2-9.2h.1Z"/><path class="faa49450-7cdc-419e-b0a6-18bd47261baf" d="M651.3,110.3l.6.9a6.1,6.1,0,0,0,.7,1l.5,1a3.7,3.7,0,0,1,.5,1.1l.5.9c.2.4.3.9.5,1.3l.3.9a9.3,9.3,0,0,1,.4,1.3l.3,1,.3,1.5a2.9,2.9,0,0,1,.2.9,8.8,8.8,0,0,1,.2,1.7,1.9,1.9,0,0,1,.1.8,22.6,22.6,0,0,1,.1,2.6v1.2a28.4,28.4,0,0,1-1,6.5h0a4.3,4.3,0,0,1-.1.5,397,397,0,0,1,126.8,74.4c3.5,3,6.8,6,10.2,9.1l1.4,1.4a399.7,399.7,0,0,1,27.8,28.9c2.6,3,5.3,6.1,7.8,9.3l1.4,1.7a402.8,402.8,0,0,1,42.3,64l.3-.2,6-2.8h0l.5-.3,1.2-.6.8-.4,1.1-.6.7-.4,1.1-.6.7-.4,1-.6.7-.4,1-.6.6-.3a5.7,5.7,0,0,1,1.3-.8l.2-.2,1.5-1,.4-.2,1-.7h.1l4.4-3.4,1.2-1.1c-3.6-6.8-7.4-13.4-11.4-20-2.4-4-4.9-8-7.5-11.9l-1-1.6a428.9,428.9,0,0,0-32.1-42.7l-1.4-1.6c-6.9-8-14.1-15.8-21.6-23.3a425.9,425.9,0,0,0-135.7-91.5,445.9,445.9,0,0,0-49.4-17.4A42.7,42.7,0,0,1,651.3,110.3Z"/><path class="faa49450-7cdc-419e-b0a6-18bd47261baf" d="M164,276.6c-2.5,3.9-5,7.9-7.4,11.9-4,6.6-7.8,13.2-11.4,20l1.2,1.1,4.3,3.4h.2l1,.7.4.2,1.5,1h.2l1.3.9.6.3,1,.6.7.4,1,.6.7.4,1.1.6.7.4,1.1.6.8.4,1.1.6.6.3h0l6,2.8.2.5c0-.1.1-.2.1-.3a409.2,409.2,0,0,1,42.2-64,11.5,11.5,0,0,0,1.4-1.7c2.6-3.2,5.2-6.3,7.9-9.3a379.4,379.4,0,0,1,27.8-28.9l1.4-1.4c3.3-3.1,6.7-6.1,10.1-9.1,7.2-6.2,14.6-12.2,22.1-17.9a47.1,47.1,0,0,1-5.6-4.4l-.3-.2-2.5-2.4-.4-.5a27.7,27.7,0,0,1-2.4-2.5l-.4-.5-2.3-2.7c-.1-.1-.1-.3-.2-.4l-2.2-3c-1.3-2-2.5-4-3.6-6.1a427.9,427.9,0,0,0-43.8,38.2c-7.5,7.5-14.7,15.3-21.6,23.3l-1.4,1.6A428.9,428.9,0,0,0,165.1,275Z"/><path class="faa49450-7cdc-419e-b0a6-18bd47261baf" d="M607.2,617.6l.2.2,9,16.5,3.9,7.2c50.2,2.9,97.4,8,139.1,15.1,0-2.4-.2-4.8-.4-7.2h0c0-.3-.1-.7-.1-1a25.1,25.1,0,0,0-.4-2.7,7.7,7.7,0,0,0-.2-1.5c-.2-.9-.3-1.7-.5-2.5l-.3-1.6-.6-2.4-.3-1.4c-.3-1-.6-1.9-.8-2.8l-.3-.8h0c-.4-1.2-.8-2.5-1.3-3.7s-1.1-2.5-1.6-3.8c-27-4.2-55.9-7.7-86.2-10.3C647.1,616,627.3,616.9,607.2,617.6Z"/><path class="faa49450-7cdc-419e-b0a6-18bd47261baf" d="M856.6,664.7l-.3,3.8h0c-.1,1.3-.3,2.5-.4,3.8v.3c-.3,2-.5,3.9-.8,5.8s-.1.9-.2,1.3c5.5,1.9,10.4,3.8,14.9,5.7.1-.2.2-.3.2-.4l3-5.9h0c0-.1.1-.2.1-.3,1-2,2-4.1,2.9-6.1l.4-.9c1.1-2.4,2.1-4.7,3.2-7a.4.4,0,0,1,.1-.3h0l2.7-6.3h0c-7.7-3.2-16.2-6.4-25.4-9.4v8.2a23.5,23.5,0,0,0-.1,2.6,6.6,6.6,0,0,0-.1,1.4c0,.9-.1,1.7-.1,2.6A4.9,4.9,0,0,0,856.6,664.7Z"/><path class="faa49450-7cdc-419e-b0a6-18bd47261baf" d="M164.4,664.5c0,.1.1.2.1.3,1,2.3,2.1,4.6,3.2,7a4.7,4.7,0,0,0,.5,1c.9,2,1.8,4,2.8,6,0,.1.1.2.1.3h0c1,2,2,3.9,2.9,5.9a.5.5,0,0,1,.2.4c15.9-6.6,37.3-13.5,65.9-20,25.2-5.8,53.3-10.7,83.5-14.6h0c-.3-2.3-.6-4.6-.8-6.9s-.3-3.1-.4-4.7a4.1,4.1,0,0,0-.1-1.1l-.3-4.7v-1c-.1-1.5-.1-3-.2-4.5v-1.3l5.7-6.5c-34.1,4.3-65.8,9.7-94.1,16.1s-52.5,13.9-71.7,22h0l2.7,6.3Z"/><path class="faa49450-7cdc-419e-b0a6-18bd47261baf" d="M128.1,578.3l-4.2-1.3h-.2l-2.1-.7-2.3-.7-1-.3-5.8-1.9-1.6-.5-2.3-.8-1.7-.6-7.7-2.8a426.6,426.6,0,0,0,27.5,102c.7,1.6,1.3,3.2,2,4.7s.1.3.2.4c3.3,7.8,6.8,15.4,10.5,22.9l2.4,4.9c1.1,2.2,2.3,4.3,3.4,6.4,3.6,6.8,7.4,13.5,11.4,20a98.7,98.7,0,0,0,10.5,5.6l1.7.8h.3l2.3,1,.5.2,3,1.3h0l3,1.2.8.3,2.3.9,1.1.5,2.1.8,1.2.4,2.2.8,1.1.4,2.5.9.9.4,3.6,1.2h0l11.5,3.6A393,393,0,0,1,171,694.4l-3.2-6.3-3-6c-2.4-4.9-4.7-9.9-6.9-14.9-.9-2.1-1.8-4.2-2.6-6.3l-2.7-6.5a400.6,400.6,0,0,1-21.3-75.2Z"/><path class="faa49450-7cdc-419e-b0a6-18bd47261baf" d="M934.8,572.3l-1.6.6-8.5,2.8-1.1.3-3.2,1h-.2l-4.2,1.3-3.3.9a386.1,386.1,0,0,1-21.3,75.2c-.8,2.2-1.7,4.4-2.6,6.5s-1.7,4.2-2.7,6.3c-2.1,5-4.4,10-6.8,14.9l-3,6.1c-1.1,2-2.2,4.1-3.2,6.2a393,393,0,0,1-36.2,56.2l11.5-3.6h0l3.6-1.2.9-.4,2.5-.8,1.2-.5,2.1-.8,1.2-.4,2.1-.8,1.1-.5,2.2-.8.9-.4,2.8-1.2h.2l3-1.2.6-.3,2.2-1h.2l1.8-.8a109.6,109.6,0,0,0,10.5-5.6c4-6.5,7.8-13.2,11.4-20l3.3-6.4c.9-1.6,1.7-3.2,2.5-4.9,3.7-7.5,7.2-15.1,10.5-22.9l.2-.4c.7-1.5,1.3-3.1,1.9-4.7a417.5,417.5,0,0,0,27.5-102l-7.6,2.8Z"/><path class="faa49450-7cdc-419e-b0a6-18bd47261baf" d="M905.3,581.3h0c-.1,0-.1.1-.1.2S905.2,581.3,905.3,581.3Z"/><path class="faa49450-7cdc-419e-b0a6-18bd47261baf" d="M556.3,616.1l-34.3-.3c-27.6,0-55.4.6-82.4,1.9h-.5l-23.6-.9,2,1.5v.6h0l.6,4.7a5.9,5.9,0,0,1,.2,1.3l.6,4a5.1,5.1,0,0,1,.2,1.3c.3,1.5.5,3,.8,4.5h0l1.2,5.8a4.3,4.3,0,0,1,.2,1.1c32.5-1.9,66.3-2.9,100.7-2.9,15.9,0,31.5.2,47,.6l-3.9-7.1h0v-.2l-7.2-13.3Z"/><path class="faa49450-7cdc-419e-b0a6-18bd47261baf" d="M438.9,161.5c21.1,5.2,48.5,8.2,77.6,8.6H522c26.6,0,51.9-2.2,72.6-6.3,3.7-.7,7.2-1.5,10.6-2.3,8.7-2.2,31.8-7.9,40.7-22l-6.9-2.2h0l-6.8-2.1-1.9-.5-5.3-1.5-1.7-.5-6.4-1.6h0l-7.9-1.9c-15.5,5.3-45.2,10.9-87,10.9s-71.4-5.6-86.9-10.9l-7.9,1.9h0l-6.4,1.6-1.7.5-5.3,1.5-1.9.5-6.8,2.1h0l-6.9,2.2C407.1,153.6,430.1,159.3,438.9,161.5Z"/><path class="faa49450-7cdc-419e-b0a6-18bd47261baf" d="M394.6,126v1.2h0a22,22,0,0,0,.7,5.8l6.3-2,.4-.2c8.3-2.6,16.7-5,25.2-7a396.9,396.9,0,0,1,189.7,0c8.5,2,16.9,4.4,25.2,7l.4.2,6.3,2a27.1,27.1,0,0,0,.7-5.8h0V126c-1.2-22.4-33.5-30.4-44.3-33.1-22.4-5.5-51.9-8.6-83.2-8.6s-60.7,3.1-83.1,8.6C428.1,95.6,395.8,103.6,394.6,126Z"/><path class="faa49450-7cdc-419e-b0a6-18bd47261baf" d="M399.3,879.3l7.1,2.4h0l6.8,2,1.7.5,7.1,1.9c0,.1.1.1.2.1l5,1.3h0l11.4,2.7c16.2-5,44.7-9.9,83.4-9.9s67.2,4.9,83.5,9.9l11.4-2.7h0l4.9-1.3h.3l7.1-1.9,1.7-.5,6.8-2h0l7.1-2.4c-9.6-12.9-31.2-18.3-39.6-20.3a251.9,251.9,0,0,0-25.2-4.8,368.6,368.6,0,0,0-38.3-3.4c-6.5-.3-13-.5-19.7-.5-31.2,0-60.7,3.1-83.1,8.7C430.5,861,408.9,866.4,399.3,879.3Z"/><path class="faa49450-7cdc-419e-b0a6-18bd47261baf" d="M465,371.8l-20.1-36.6a84.3,84.3,0,0,0-.6,10.1c0,1.2,0,2.3.1,3.5h0V350c.1,1,.2,1.9.2,2.8a3.7,3.7,0,0,1,.1,1.1c.1.9.3,1.9.4,2.8a1.7,1.7,0,0,0,.1.7,20.2,20.2,0,0,0,.6,3.4c0,.3.1.5.1.8l.6,2.6.3,1a19.8,19.8,0,0,0,.8,2.6c0,.2.1.4.1.6s.7,1.9,1,2.8H451l4.9.2h.9Z"/><path class="faa49450-7cdc-419e-b0a6-18bd47261baf" d="M575.7,574.5l-20.3-37.1-6.3-1.6-3-.8-1.2-.3-2.8-.7-2.6-.7-2.8-.8-2.5-.7-2.7-.7-2.6-.7-2.5-.7-1.6-.4-9.5-2.7L541.8,575h9l15.9-.2h9Z"/><path class="faa49450-7cdc-419e-b0a6-18bd47261baf" d="M599.2,617.4H591l-18.6-.6-8.1-.2,1.4,2.4,7.5,13.8,3.9,7.1,1.9,3.5,64.1,117.4,2.6-.4,4.8-.8h0l1.1-.2,2.5-.4,1.6-.3,2.3-.5,1.7-.4,2.2-.4,1.7-.4,2.2-.6,1-.2h0l7-1.9L616,648.3l-3.9-7.2-1.9-3.4-10.8-19.8Z"/><path class="faa49450-7cdc-419e-b0a6-18bd47261baf" d="M383.4,208l2.5,4.6,5.9,10.8,3.7,6.7h.1l6-5.9,1.8-1.7.5-.4,1.2-1.1,1.5-1.3,1.3-1.1,1.4-1.2,1.4-1.1,1.5-1.2,1.3-1.1,1.6-1.2,1.3-1,1.7-1.2,1.3-1,1.7-1.1a7.1,7.1,0,0,1,1.4-1l1.7-1.2,1.4-.9.4-.3c4.1-2.7,8.4-5.2,12.8-7.7q-30.3,1.5-59,3.9l3.6,6.7Z"/><path class="faa49450-7cdc-419e-b0a6-18bd47261baf" d="M269.7,164.9A54.4,54.4,0,0,0,284,183.2a49.4,49.4,0,0,0,5.9,4.3c1.3.9,2.6,1.6,4,2.4a56,56,0,0,0,26.1,6.4,57.5,57.5,0,0,0,13.9-1.7l2.2,4.1,3.7,6.6,2.2,4.1,9.7,17.7,3.6,6.7,2.3,4,13.5,24.8,4.2-6.8.8-1.2c.8-1.3,1.7-2.6,2.6-3.9l.9-1.2,2-2.8.9-1.3,2.4-3,.6-.8.2-.2c1-1.3,2-2.5,3.1-3.7h0a16.3,16.3,0,0,0,1.7-2l-2.6-4.9-2.2-4-9.9-18-3.7-6.7-2.2-4-10-18.4a55.8,55.8,0,0,0,15.9-34.8c.1-1.5.2-3,.2-4.5h0a58.4,58.4,0,0,0-.5-7.3,54.7,54.7,0,0,0-7.7-21.8c-1-1.6-2.1-3.1-3.2-4.6A56,56,0,0,0,264,140.3a54.3,54.3,0,0,0,3.5,19.4A47.7,47.7,0,0,0,269.7,164.9ZM294,140.1a26,26,0,0,1,39.8-21.8,24.8,24.8,0,0,1,5.8,4.9,26,26,0,0,1,1.7,32l-.9,1.2a26,26,0,0,1-17.8,9.8H320A26,26,0,0,1,297.3,153a28.3,28.3,0,0,1-2.3-5.3,30,30,0,0,1-1-7.4Z"/><path class="faa49450-7cdc-419e-b0a6-18bd47261baf" d="M696.8,873.3h0l-3.3-6.1a409.6,409.6,0,0,1-38.7,16.1l-6.6,2.3-6.7,2.2q-12.2,3.8-24.6,6.9-16.9,4.2-34.5,6.9h-.1a399,399,0,0,1-60.3,4.6h0a400,400,0,0,1-60.3-4.6h-.1c-11.6-1.8-23.1-4.1-34.4-6.9-8.4-2.1-16.6-4.4-24.7-6.9l-6.6-2.2-6.6-2.3a397.1,397.1,0,0,1-127.5-74.6l-11.5-2.2-1.9-.4H248l-3.4-.7-1-.2-3.4-.7-.7-.2-3.5-.8h-.5l-3.6-.8-6.2-1.4-1.5-.4-5-1.2L205.8,796c4.7,5.1,9.4,10.2,14.4,15.1A425.9,425.9,0,0,0,458.6,931.5h0a410.6,410.6,0,0,0,63.4,4.7h0a411.9,411.9,0,0,0,63.5-4.7h0a424.6,424.6,0,0,0,102.7-28.9c6.7-2.8,13.3-5.8,19.7-8.9l-6.7-12.3Z"/><path class="faa49450-7cdc-419e-b0a6-18bd47261baf" d="M777.3,915.7a55.3,55.3,0,0,0-14.2,1.8L743.7,882l-3.2-5.9-11.2-20.6-3.3-5.9-3.3-6.1-4-7.4-1,.4-5.7,2-.8.3-4.2,1.3-3.4,1.1-4.4,1.3-2.8.8-7,1.9,7,12.8,3.4,6.1L703,870l11.2,20.6,3.3,5.9,19.7,36.1a56,56,0,1,0,40.1-16.9Zm0,82a26,26,0,1,1,26-26A25.9,25.9,0,0,1,777.3,997.7Z"/><path class="faa49450-7cdc-419e-b0a6-18bd47261baf" d="M954.5,461.4l-1.2-.5c.3,3.5.7,6.9,1,10.4.1,1.7.3,3.4.4,5l.3,4.1.3,5a14.8,14.8,0,0,0,.1,2.1c0,1.4.1,2.7.2,4.1s.1,2.8.1,4.2c11.1,6.7,14,11.8,14,13.5s-2.9,6.7-14,13.5l-7.1,3.9-3.7,1.8-2.7,1.3c-5.1,2.3-10.9,4.5-17.2,6.8l-7.2,2.4-4.5,1.4c-18.7,5.9-41.3,11.4-66.9,16.2l-17.8,3.2-4.6.8-7.5,1.2c-32.4,5.2-68,9.4-106,12.7h-1.9l-14.5,1.2c-35.2,2.7-72.2,4.5-110.4,5.5h-4.2l-7.9.2-21.8.3H522c-122.6,0-237.8-9.1-324.3-25.5a591.5,591.5,0,0,1-67-16.2l-4.4-1.4-7.2-2.4c-6.3-2.3-12.1-4.5-17.2-6.8l-2.7-1.3-3.7-1.8c-2.7-1.4-5.1-2.7-7.1-3.9-11.2-6.8-14-11.8-14-13.5s2.8-6.8,14-13.5c0-1.4.1-2.8.1-4.3s.1-2.6.2-4,.1-1.4.1-2.1l.3-5,.3-4.1c.1-1.6.3-3.3.4-5,.3-3.5.6-6.9,1-10.4l-1.2.5c-30.4,13.7-45.2,29.3-45.2,47.9s14.8,34.2,45.2,47.8l4.8,2.1,3.8,1.6c8.3,3.3,17.5,6.5,27.6,9.5l4.2,1.3,7.5,2.1c16.2,4.4,34.4,8.6,54.6,12.4,53,10.1,116.4,17.4,185.5,21.7q30,1.8,61.4,2.9h.6c26.9.9,54.5,1.4,82.4,1.4q16.5,0,32.7-.3h15.1l20.9-.5h4.9l4.3-.2h5.2q31.4-1.1,61.4-3c26-1.6,51.2-3.6,75.4-6.1l3.5-.3,8.4-.9c28.1-3.1,54.6-6.7,79.1-10.9l5.6-1,7-1.2,6.5-1.2c20.2-3.8,38.4-8,54.6-12.4l7.4-2.1,4.3-1.3c10.1-3,19.3-6.2,27.6-9.5l3.8-1.6,4.8-2.1c30.4-13.6,45.2-29.3,45.2-47.8S984.9,475.1,954.5,461.4Z"/><path class="faa49450-7cdc-419e-b0a6-18bd47261baf" d="M827.8,340a193.5,193.5,0,0,0-29.6-76.8c-1.3-2.1-2.8-4.1-4.2-6.1s-4.3-5.8-6.5-8.6l-1.6-1.8a173.8,173.8,0,0,0-28.5-27c-4.2-3.2-8.6-6.3-13.2-9.2l-1.2-.7a216.2,216.2,0,0,0-30.3-15.7q-51.5-21.6-117.5-23.3H584.3a337.6,337.6,0,0,0-67.2,6.4,285.5,285.5,0,0,0-53,15.9l-7.1,3.1-1.3.6c-5.2,2.4-10.2,5-15,7.7a172.2,172.2,0,0,0-32.5,23.3l-1.8,1.6c-2.6,2.4-5,4.9-7.3,7.4a.2.2,0,0,0-.2.2c-1.7,1.7-3.3,3.5-4.8,5.3l-3,3.7a145.3,145.3,0,0,0-9.2,12.6l-2.7,4.3c-1.5,2.3-2.8,4.7-4.2,7.1l-1.8,3.3a165,165,0,0,0-19.4,77.9c0,4.5.2,8.9.5,13.3h1.4l5.7.6h0l2,.2,4.1.4,5.2.5,4.1.4,5.2.4,4.2.4,5.3.4,4.1.3,5.5.4,4,.3,5.9.4,3.7.3,7.3.4h2.3l9.4.5h.6l6.9.3a81.3,81.3,0,0,1-3.9-25.6c0-2.9.2-5.8.4-8.7a80.4,80.4,0,0,1,1.9-11.1c.2-.9.5-1.8.7-2.7,5-17.6,15.9-33.3,33-46.9q35.8-28.8,114.5-28.8,75.6,0,114.2,31.7,33.6,27.6,43,78.4h.1l6.9-1.1h.3l2.6-.4,4.6-.8,2.8-.5,4.2-.7,2.9-.5,4-.8,2.9-.5,4-.8,2.8-.5,3.9-.8,2.7-.6,4.3-.9,2.1-.5,6.3-1.4,5.7-1.3,1.7-.4,4.2-1,1.6-.4,5.4-1.4h0l5.9-1.6Z"/><path class="faa49450-7cdc-419e-b0a6-18bd47261baf" d="M413.1,636.1c-1-5.4-1.9-11-2.6-16.8h0l-7.9.6c-17.3,1.3-34.1,2.7-50.5,4.5l-23.3,2v.6c.1,5.5.5,10.8,1,16.1.2,2.3.4,4.6.7,6.9l.9,6.8A216.5,216.5,0,0,0,364.7,744a200,200,0,0,0,31.6,37.4l9.1.7,2.2.2h.1l6.7.4,6.1.4,7.9.4,6.3.4,8,.3,6.3.3,8.1.3,6.3.3,8.3.2,6.3.2,8.7.2H522c11.7,0,23.3-.2,34.8-.4l12.9-.3c30-.8,59.4-2.4,87.7-4.7,10.9-.9,21.8-1.9,32.4-3.1,41.8-4.4,79.7-10.5,112.6-18l2.9-.6h0l2.4-.6,8.2-2c1.5-2,2.9-4.1,4.2-6.1,13.6-21.1,22.6-43,26.9-65.9l1.2-7c.3-1.9.5-3.8.7-5.8a173.4,173.4,0,0,0,1.1-17.7v-2.1c0-1.8,0-3.6-.1-5.3s-.1-3.3-.2-5a166.7,166.7,0,0,0-8.7-46.3l-1.3.2-5.7,1h-.2l-7.9,1.3-1.3.2-8,1.2-1.3.2-8.1,1.3h-.4l-8.4,1.2-1.6.2-8.5,1.2h-1l-8.1,1.1h-1.3l-8.6,1.1-1.8.2-9,1h0l-7.9.9a83.9,83.9,0,0,1,10.1,18.6c.5,1.3,1,2.5,1.4,3.8a85.6,85.6,0,0,1,4,20.5c.2,2.3.4,4.7.4,7.1v1.1c0,1.6-.1,3.3-.1,4.9-.9,18.4-7.1,35.4-18.4,51.2s-31.2,30.6-56.5,40.4l-8.8,3.1-5.5,1.8-6.9,1.9c-6,1.6-12.3,2.9-18.7,4.1l-4.9.8-7.4,1a308.2,308.2,0,0,1-35.4,2c-37.2,0-70.7-6.4-100.5-19.4s-51.7-29.9-65.9-50.9c-9.6-14.2-16.8-31.2-21.6-50.8-.6-2.3-1.1-4.6-1.6-6.9S413.4,638.1,413.1,636.1Z"/><path class="faa49450-7cdc-419e-b0a6-18bd47261baf" d="M749.9,814.2c-7.3,1.2-14.8,2.2-22.3,3.2l-1.6.2-7,.9-2.8.4-9.3,1.1h0c-10.5,1.2-21.4,2.4-32.6,3.4-48.4,4.4-99.6,6.7-152.3,6.7H505.8l-26.9-.5c19.2,6.5,40.2,11.2,63.2,14.3,12.3,1.6,25.1,2.7,38.4,3.4,8.9.4,18,.7,27.4.7a334.6,334.6,0,0,0,72.9-7.8l5.2-1.3q3.4-.7,6.9-1.8c5.7-1.5,11.3-3.2,16.7-5.1l5.7-2,6.6-2.5,12.2-5.2C739.6,819.7,744.8,817,749.9,814.2Z"/><path class="faa49450-7cdc-419e-b0a6-18bd47261baf" d="M738.4,491.9q-39.3-18-145-41.8c-9.1-2.1-17.8-4.1-26.1-6.2s-19.1-4.9-27.6-7.4l-.9-.2q-27-7.8-45.3-15.4l-2.2-.9c-2.9-1.2-5.5-2.4-8-3.6l-2.7-1.4-2.2-1.1-10.9.2h-2.3l-14.7.4-11,.4H439l-9.3-.4-3-.2-6.2-.3-3.5-.2-5.8-.4-3.5-.2-5.9-.4-3.2-.3-6.7-.5h-2.4l-8.9-.8h-1.7l-6.1-.5-1.5-.2-6.4-.6.8,2c.6,1.5,1.3,3,2,4.4a159.2,159.2,0,0,0,9.1,16.7l.7,1.1c1.5,2.3,3.1,4.6,4.7,6.8l2.3,3q22.5,29.3,62.2,50Q467.9,505,507.8,517l2.8.9,9.5,2.8c8.7,2.5,17.9,5,27.8,7.5l2.9.8,9.3,2.3,13,3.2q90.1,21.8,116.6,31.9l5.6,2.3,12.7-1,1.9-.2h0l4.8-.4H716l14.9-1.4,1.2-.2,5.9-.5,2.1-.3,5-.5,2.4-.2,4.7-.6,2.4-.2,4.7-.6,2.4-.2,4.8-.6,2-.2,5.9-.8h.9l6.8-.9,1.6-.2,5-.7,2.4-.3,4.1-.6,2.6-.3,3.9-.6,2.7-.4,3.7-.6,2.6-.4h1.2l7.8-1.3Q792.4,516.7,738.4,491.9Z"/><path class="faa49450-7cdc-419e-b0a6-18bd47261baf" d="M920.9,680.2c-1.3,3.1-2.7,6.2-4.1,9.3l-1.9,4.2a31.8,31.8,0,0,1-1.6,3.2c-.6,1.4-1.3,2.8-1.9,4.1l-.6,1.1c-.8,1.6-1.5,3.2-2.3,4.7a21.2,21.2,0,0,0-1.1,2.1c2.2,2.8,3.1,5.2,3.1,7,0,4.2-4.7,11.1-17.9,19.2a128.7,128.7,0,0,1-12.6,6.8l-1.7.9a293.9,293.9,0,0,1-37.2,13.9L829.5,760l-2.2.6-7.2,1.9-10.8,2.7-2.4.6-2.9.6c-33.4,7.7-71.8,13.8-113.5,18.2-10.6,1.1-21.5,2.2-32.5,3.1-43,3.5-88.8,5.4-136,5.4-39.5,0-78.1-1.4-114.9-3.9h-2.2l-11.6-.9c-57.1-4.4-109.4-11.8-153.2-21.8-8.4-1.9-16.1-3.8-23.3-5.8l-2.2-.6L203,756.7a293.9,293.9,0,0,1-37.2-13.9l-1.8-.9a126.1,126.1,0,0,1-12.5-6.8c-13.2-8.1-17.9-15-17.9-19.2,0-1.8.9-4.2,3.1-7l-1.1-2.1c-.8-1.5-1.5-3.1-2.3-4.7l-.6-1c-.6-1.4-1.3-2.8-2-4.2l-1.5-3.2c-.7-1.4-1.3-2.9-2-4.3-1.4-3.1-2.7-6.1-4-9.2-13,10.9-19.6,22.8-19.6,35.7,0,27.9,30.8,51.3,91.6,69.8l2,.6c11.1,3.3,23.2,6.4,36.2,9.4l16.4,3.5,1.9.4,13.3,2.6c55.8,10.4,121.9,17.1,192.4,19.7H459c6.9.3,14,.5,21.1.6,13.8.4,27.8.6,41.9.6,52.8,0,104.1-2.3,151.7-6.7q16.5-1.5,32.4-3.3c14.2-1.7,28.1-3.6,41.5-5.6q9.3-1.3,18.3-3l1.5-.2,11.7-2.1,13.3-2.6,1.9-.4,16.4-3.5c13-3,25.1-6.1,36.2-9.4l1.9-.6c60.9-18.5,91.7-41.9,91.7-69.8C940.5,703,933.9,691.1,920.9,680.2Z"/><path class="faa49450-7cdc-419e-b0a6-18bd47261baf" d="M106.1,488.2h0c-.1.1-.1.2-.2.2l-.6.4-.5.4-.5.4-.4.3-.5.4-.3.2-.4.4-.4.3-.3.3-.3.3-.4.3-.2.2-.3.3c-.1.1-.1.2-.2.2l-.4.5.4.4.2.2.3.3.2.2.4.4.3.2.3.4.4.2.4.4.3.3.5.4.4.3a1,1,0,0,1,.5.4l.5.3.6.4.2.2h0V488.2Z"/><path class="faa49450-7cdc-419e-b0a6-18bd47261baf" d="M923.1,565.3h0Z"/><path class="faa49450-7cdc-419e-b0a6-18bd47261baf" d="M874.7,625.3v0h0Z"/><path class="faa49450-7cdc-419e-b0a6-18bd47261baf" d="M865.9,578a1.4,1.4,0,0,1,.2.6,1.4,1.4,0,0,0-.2-.6h0Z"/><path class="faa49450-7cdc-419e-b0a6-18bd47261baf" d="M475.4,812.9h0l.9.4Z"/><path class="faa49450-7cdc-419e-b0a6-18bd47261baf" d="M973.9,498.3h0l.2-.2.6-.4.5-.3a1,1,0,0,1,.5-.4l.4-.4.5-.3.3-.3c.2-.1.3-.3.4-.4l.4-.2.3-.4.3-.2.4-.3c0-.1.1-.2.2-.3l.3-.3.2-.2.4-.4-.4-.5-.2-.2-.3-.3-.2-.2-.4-.3-.3-.3-.3-.3-.4-.3-.4-.4-.3-.3-.5-.3-.4-.3-.5-.4-.5-.4-.6-.4c-.1,0-.1-.1-.2-.2h0v10.1Z"/><path class="faa49450-7cdc-419e-b0a6-18bd47261baf" d="M838,784.7l-1.8.4-6,1.4-3.7.8h-.4l-3.5.8-.8.2-3.4.7-1,.2-3.4.7h-.4l-1.9.4-11.5,2.2A397.4,397.4,0,0,1,750,829.9l3.3,6.2h0l1.5,2.6,9.7,17.8a429.1,429.1,0,0,0,77.4-61.4c4.9-4.9,9.7-10,14.3-15.1l-13.4,3.5Z"/><path class="faa49450-7cdc-419e-b0a6-18bd47261baf" d="M747.5,823.2l-.9.6h0Z"/><path class="faa49450-7cdc-419e-b0a6-18bd47261baf" d="M623.1,398.8h-.6c-27.1-.9-54.9-1.3-82.5-1.3H512.2l2,.9,5.4,2.1h0l.4.2,3.3,1.3.8.3,3.8,1.4.8.2,3.7,1.3.6.2a41.3,41.3,0,0,0,4.2,1.4l.9.3,4.5,1.5h0l4.6,1.4,1,.3,4.7,1.4.8.3,4.3,1.2.6.2h.1l.9.3c8.2,2.3,17.1,4.7,26.6,7.1,105.2,2,202.6,10.7,278.1,25a600.9,600.9,0,0,1,64.3,15.4c-.2-2.5-.5-5-.7-7.6h0l-.3-2.4c-.2-1.6-.3-3.2-.5-4.8s-.3-2.5-.5-3.7l-.6-4.7a8.8,8.8,0,0,1-.2-1.6h-.1l-.6-4.3c-.2-1.1-.4-2.2-.5-3.2-16.2-4.5-34.5-8.6-54.7-12.5-53-10-116.4-17.4-185.5-21.6C664.5,396.5,644,397.9,623.1,398.8Z"/><path class="faa49450-7cdc-419e-b0a6-18bd47261baf" d="M151.4,461.3a600.9,600.9,0,0,1,64.3-15.4c50.4-9.6,110.5-16.6,176.2-20.8l-3.1-4.7a23.9,23.9,0,0,0-1.3-2.1v-.2l-2-3.3a3,3,0,0,0-.4-.8l-1.5-2.7-.5-1-1.8-3.5h0c-.6-1.2-1.2-2.3-1.7-3.5s-.2-.3-.2-.4l-2.1-4.6-.9-2.2c-61.6,4.3-118.2,11.2-166.2,20.3-20.2,3.9-38.5,8-54.7,12.5-.1,1-.3,2.1-.5,3.2l-.6,4.3h-.1a8.8,8.8,0,0,1-.2,1.6l-.6,4.7c-.2,1.2-.3,2.4-.5,3.7s-.3,3.1-.5,4.7l-.3,2.5h0C151.9,456.3,151.6,458.8,151.4,461.3Z"/><path class="faa49450-7cdc-419e-b0a6-18bd47261baf" d="M929,337.9l-1.7,1-1.6.9-1.8,1-1.7,1-1.9,1-1.8.9-1.9,1-.9.4-6,2.9h-.3a388.1,388.1,0,0,1,21.3,75.2c.5,2.5.9,5.1,1.3,7.7s.4,2.9.7,4.4c1,6.8,1.8,13.7,2.4,20.6.3,2.5.5,5,.7,7.5l.3,4.7c.5,8.3.8,16.7.8,25.1s-.2,14.8-.6,22.1l7.1-2.4h0l.4-.2,3-1.1,1-.4,2.3-.9,1.1-.5,2.2-.8.9-.4,3-1.3,2.4-1.1h0l3.7-1.8,3.4-1.8c.1-3.2.1-6.3.1-9.4s0-6.3-.1-9.4l-.3-8.1c0-1.3-.1-2.7-.2-4.1-.5-10-1.3-20-2.5-29.9-.1-1.4-.3-2.8-.5-4.1a422.1,422.1,0,0,0-27.4-104.4C933.7,334.9,931.4,336.4,929,337.9Z"/><path class="faa49450-7cdc-419e-b0a6-18bd47261baf" d="M116.6,504.5l3.7,1.8h0l2.4,1.1,3,1.3.9.4,2.2.8,1.1.5,2.2.9,1.1.4,3,1.1.4.2h0l7.1,2.5q-.6-11.1-.6-22.2c0-8.4.3-16.8.8-25.1l.3-4.7c.2-2.5.4-5,.7-7.5.6-6.9,1.4-13.8,2.4-20.6.3-1.5.5-3,.7-4.4s.8-5.2,1.3-7.7a388.1,388.1,0,0,1,21.3-75.2c0-.1.1-.2.1-.3l-.4.2-6-2.9-.9-.4-1.9-1-1.8-.9-1.8-1-1.8-1a9.5,9.5,0,0,1-1.7-1l-1.7-.9-1.7-1c-2.4-1.5-4.7-3-6.9-4.6a422.1,422.1,0,0,0-27.4,104.4c-.2,1.3-.4,2.7-.5,4.1-1.2,9.9-2,19.9-2.5,29.9-.1,1.4-.2,2.8-.2,4.1l-.3,8.1c-.1,3.1-.1,6.2-.1,9.4s0,6.2.1,9.4Z"/><path class="faa49450-7cdc-419e-b0a6-18bd47261baf" d="M141.1,322.3l1.4,1.1,4.3,3.3a57.2,57.2,0,0,0,4.8,3.2,143.8,143.8,0,0,0,15.3,8.7v.3h.4l6,2.8,6.3,2.8h.1c19.2,8.1,43.2,15.5,71.8,22,36.4,8.3,78.5,14.9,124.2,19.5l4.5.4,7.7.8q33.1,3,68.3,4.7h1.3l30.7,1.2H503l.6.3-.2-.3h8.1q14.1.3,28.5.3c28,0,55.6-.7,82.5-1.9h.5q31.5-1.5,61.4-4c53.4-4.7,102.5-11.9,144.2-21.4,28.6-6.5,52.6-13.9,71.8-22l6.4-2.8,6-2.8a146.6,146.6,0,0,0,20.4-12.1l4.3-3.3c13.9-11.2,20.9-23.5,20.9-36.8,0-26.3-27.3-48.5-81.2-66.4,3.1,3.8,6.2,7.7,9.2,11.7l2.4,3.3c.7.9,1.3,1.8,2,2.6l2.4,3.4,1.9,2.6,2.3,3.4,1.8,2.6,2.4,3.6,1.2,1.8,1.1,1.6c2.2,3.5,4.5,7,6.6,10.6,13.2,8.1,17.9,15.1,17.9,19.2,0,1.9-.9,4.2-3.1,7a30.9,30.9,0,0,1-5.1,5.3,44.1,44.1,0,0,1-4.5,3.5,105.1,105.1,0,0,1-15.3,9l-6.2,3-6.4,2.8A342.7,342.7,0,0,1,853.5,329l-6.8,1.9-5.8,1.6c-6,1.6-12.3,3.1-19,4.7-15.9,3.6-32.9,6.9-50.8,9.8l-6.9,1.1-6.9,1c-64,9.6-138.9,14.7-217.3,14.7-16.6,0-33-.3-49.2-.7h-4l-8.1-.3-12.5-.5-4.3-.2-7.8-.3h-2.2q-37.9-2-73.4-5.6l-5.5-.5-7.2-.8c-39.4-4.4-75.8-10.3-107.7-17.5-28.6-6.6-50-13.4-65.9-20l-.4-.2-6-2.6-6.2-3v-.2c0,.1,0,.1-.1.2a122.1,122.1,0,0,1-13.9-8.2l-1.2-.8a44.1,44.1,0,0,1-4.5-3.5c-1.5-1.3-2.7-2.5-3.8-3.6l-1.3-1.7c-2.2-2.8-3.1-5.1-3.1-7,0-4.1,4.7-11.1,17.9-19.2,2.1-3.6,4.4-7.1,6.6-10.6l1.1-1.6,1.2-1.8,2.4-3.6,1.8-2.6c.8-1.1,1.5-2.3,2.4-3.4l1.8-2.6,2.4-3.4a24.8,24.8,0,0,0,1.9-2.6l2.5-3.3c3-4,6.1-7.9,9.2-11.7-53.9,17.9-81.2,40.1-81.2,66.4Q121.6,306,141.1,322.3Z"/><path class="faa49450-7cdc-419e-b0a6-18bd47261baf" d="M244.4,239.4l13.7-3.3c31.8-7.3,68.2-13.2,107.6-17.5l-3.6-6.7-8.3-15.1-3.6-6.6c-23.6,2.8-46.2,6.2-67.2,10.1l-8.6,7.7a18.5,18.5,0,0,1-1.4,1.4h0a9.3,9.3,0,0,0-1.4,1.4l-3,2.8-2.1,2.1-2.9,2.8-2.1,2.2-2.8,2.9-2.1,2.2-2.8,3-1.3,1.4h0C249.7,233.2,247,236.3,244.4,239.4Z"/><path class="faa49450-7cdc-419e-b0a6-18bd47261baf" d="M396,99.7a6.1,6.1,0,0,0,.5,1.2l.3.8c.1.4.3.8.4,1.1l.3.9c.1.4.3.7.4,1.1l.3.9.3,1.1a2.9,2.9,0,0,1,.2.9l.3,1.1.3.9a3.6,3.6,0,0,0,.2,1.1c.1.4.1.7.2,1a3.6,3.6,0,0,1,.2,1.1c.1.3.1.6.2.9a.7.7,0,0,0,.1.5,58.5,58.5,0,0,1,.7,7.2l5.8-2.1-.2-.5h0a28.3,28.3,0,0,1-.9-6.5,4.9,4.9,0,0,1-.1-1.2,21.7,21.7,0,0,1,.1-2.6c0-.3.1-.6.1-.8s.1-1.2.2-1.7a3,3,0,0,0,.2-1l.3-1.4.3-1,.4-1.3a3.6,3.6,0,0,1,.4-.9,5,5,0,0,1,.5-1.3l.4-.9.6-1.2a4.1,4.1,0,0,1,.5-.9l.6-1,.6-.9a43.1,43.1,0,0,1,12.6-11.8c-10.4,3-20.7,6.4-30.9,10.1a54.6,54.6,0,0,1,3.2,6.4A2.5,2.5,0,0,1,396,99.7Z"/><path class="faa49450-7cdc-419e-b0a6-18bd47261baf" d="M826.1,228.7l-2.7-2.9-2.1-2.2-2.8-2.9-2.1-2.2-2.9-2.8-2.1-2.1-3-2.8a9.3,9.3,0,0,0-1.4-1.4h0a18.5,18.5,0,0,1-1.4-1.4l-8.5-7.7L778.2,197c3.9,2.9,7.6,5.9,11.2,9.1l.3.2,4.6,4.2.7.6,4.4,4.3.7.7,4.2,4.5.7.7c1.3,1.5,2.7,3,4,4.6l.2.3c.6.6,1.1,1.3,1.6,1.9,1.8,2.2,3.6,4.4,5.2,6.7l5.9,1.3,13.7,3.3c-2.6-3.1-5.3-6.2-8.1-9.2h0Z"/><path class="faa49450-7cdc-419e-b0a6-18bd47261baf" d="M669.3,94.3l.6.9.6,1a4.1,4.1,0,0,1,.5.9l.6,1.2.4.9a5,5,0,0,1,.5,1.3l.4.9.4,1.3.3,1,.3,1.4a3,3,0,0,0,.2,1c.1.5.1,1.1.2,1.7s.1.5.1.8a21.7,21.7,0,0,1,.1,2.6,4.9,4.9,0,0,1-.1,1.2,28.3,28.3,0,0,1-.9,6.5h0l-.2.5a397.4,397.4,0,0,1,126.9,74.4c3.4,3,6.8,6,10.1,9.1l1.5,1.4a378.1,378.1,0,0,1,27.7,28.9c2.7,3,5.3,6.1,7.9,9.3l1.4,1.7a402.3,402.3,0,0,1,42.2,64l.4-.2,5.9-2.8h0l.6-.3,1.2-.6.7-.4,1.1-.6.8-.4,1-.6.7-.4,1.1-.6.6-.4,1.1-.6.5-.3,1.3-.8.3-.2,1.5-1,.3-.2,1.1-.7a.1.1,0,0,1,.1-.1h0l4.3-3.4a6.5,6.5,0,0,0,1.2-1.1c-3.6-6.8-7.4-13.4-11.3-20-2.5-4-4.9-8-7.5-11.9l-1.1-1.6a414,414,0,0,0-32.1-42.7l-1.3-1.6c-6.9-8-14.1-15.8-21.6-23.3A425.9,425.9,0,0,0,706.2,99.9a440.4,440.4,0,0,0-49.5-17.4A43.1,43.1,0,0,1,669.3,94.3Z"/><path class="faa49450-7cdc-419e-b0a6-18bd47261baf" d="M182,260.6c-2.6,3.9-5,7.9-7.5,11.9-3.9,6.6-7.7,13.2-11.3,20a6.5,6.5,0,0,0,1.2,1.1l4.3,3.4h0a.1.1,0,0,1,.1.1l1.1.7.3.2,1.5,1h.2l1.4.9.5.3,1.1.6.6.4,1.1.6.7.4,1,.6.8.4,1.1.6.7.4,1.2.6.6.3h0l5.9,2.8.2.5.2-.3a402.3,402.3,0,0,1,42.2-64l1.4-1.7c2.6-3.2,5.2-6.3,7.9-9.3a378.1,378.1,0,0,1,27.7-28.9l1.5-1.4c3.3-3.1,6.7-6.1,10.1-9.1,7.1-6.2,14.5-12.2,22.1-17.9a61.7,61.7,0,0,1-5.7-4.4c-.1-.1-.1-.2-.2-.2l-2.6-2.4-.4-.5-2.4-2.5-.3-.5-2.3-2.7-.3-.4-2.1-3c-1.3-2-2.5-4-3.6-6.1a427.4,427.4,0,0,0-43.9,38.2c-7.5,7.5-14.7,15.3-21.6,23.3l-1.3,1.6A414,414,0,0,0,183.1,259Z"/><path class="faa49450-7cdc-419e-b0a6-18bd47261baf" d="M625.2,601.6v.2l9,16.5,4,7.2c50.2,2.9,97.3,8,139.1,15.1-.1-2.4-.2-4.8-.4-7.2h0c-.1-.3-.1-.7-.2-1.1l-.3-2.6-.3-1.6a20,20,0,0,0-.4-2.4l-.3-1.6-.6-2.4a8.3,8.3,0,0,0-.4-1.5,27.6,27.6,0,0,0-.8-2.7c-.1-.3-.1-.6-.2-.9h0c-.4-1.2-.9-2.5-1.4-3.7a25.4,25.4,0,0,0-1.6-3.8c-26.9-4.3-55.8-7.7-86.2-10.3C665,599.9,645.3,600.9,625.2,601.6Z"/><path class="faa49450-7cdc-419e-b0a6-18bd47261baf" d="M874.5,648.7l-.3,3.8h0c-.1,1.3-.2,2.5-.4,3.8v.3c-.2,1.9-.5,3.9-.7,5.8a5.9,5.9,0,0,0-.2,1.3c5.4,1.9,10.4,3.8,14.9,5.7.1-.2.1-.3.2-.4l2.9-5.9h0l.2-.3c1-2.1,1.9-4.1,2.9-6.1a3.6,3.6,0,0,1,.4-.9c1.1-2.4,2.1-4.7,3.1-7.1.1,0,.1-.1.1-.2h0l2.7-6.3a.1.1,0,0,1,.1-.1c-7.7-3.3-16.2-6.4-25.4-9.4v3.1c0,1.4,0,2.8-.1,4.3v.8a21.7,21.7,0,0,1-.1,2.6v1.4c-.1.9-.1,1.7-.2,2.6A4.9,4.9,0,0,1,874.5,648.7Z"/><path class="faa49450-7cdc-419e-b0a6-18bd47261baf" d="M182.4,648.5c0,.1,0,.2.1.2,1,2.4,2,4.7,3.1,7.1.2.3.3.7.5,1l2.8,6,.2.3h0c.9,2,1.9,3.9,2.9,5.9l.2.3c15.9-6.5,37.3-13.4,65.9-19.9,25.2-5.8,53.3-10.7,83.4-14.6h0c-.3-2.3-.5-4.6-.7-6.9s-.3-3.1-.4-4.7a4.5,4.5,0,0,1-.1-1.1l-.3-4.7a3.4,3.4,0,0,0-.1-1c0-1.5-.1-3-.1-4.5s-.1-.9-.1-1.3l5.8-6.5c-34.1,4.3-65.8,9.7-94.1,16.1s-52.6,13.9-71.8,22a.1.1,0,0,1,.1.1l2.7,6.3Z"/><path class="faa49450-7cdc-419e-b0a6-18bd47261baf" d="M146,562.3l-4.2-1.3h-.1l-2.1-.7-2.3-.7-1-.3-5.8-1.9-1.6-.5-2.4-.8-1.7-.6-7.6-2.8a426.6,426.6,0,0,0,27.5,102c.6,1.6,1.3,3.1,2,4.7s.1.3.1.4c3.3,7.8,6.8,15.4,10.6,22.9l2.4,4.9c1.1,2.2,2.2,4.3,3.4,6.4,3.6,6.8,7.4,13.5,11.3,20,3,1.8,6.5,3.6,10.5,5.6l1.8.8h0l.3.2,2.2,1,.6.2,2.9,1.3h.1l2.9,1.2.9.3,2.2.9,1.1.4,2.2.9,1.1.4,2.2.8,1.2.4,2.5.9.9.3,3.5,1.3h.1l11.4,3.6A401.2,401.2,0,0,1,189,678.4c-1.1-2.1-2.2-4.2-3.2-6.3s-2.1-4-3-6c-2.4-4.9-4.7-9.9-6.9-14.9l-2.7-6.3-2.6-6.5a388.1,388.1,0,0,1-21.3-75.2Z"/><path class="faa49450-7cdc-419e-b0a6-18bd47261baf" d="M952.8,556.3l-1.6.6-8.5,2.7-1.2.4-3.2,1h-.1l-4.2,1.3-3.3.9a388.1,388.1,0,0,1-21.3,75.2l-2.6,6.5-2.7,6.3c-2.2,5-4.5,10-6.9,14.9q-1.4,3-3,6c-1,2.1-2.1,4.2-3.2,6.3a401.2,401.2,0,0,1-36.1,56.2l11.4-3.6h.1l3.5-1.3.9-.3,2.5-.9,1.2-.4,2.1-.8,1.3-.4,2-.8,1.2-.5,2.1-.8,1-.4,2.7-1.2h.3l2.9-1.3.6-.2,2.2-1,.3-.2h0l1.8-.8c4-2,7.5-3.8,10.5-5.6,3.9-6.5,7.7-13.2,11.3-20,1.2-2.1,2.3-4.2,3.4-6.4l2.4-4.9c3.8-7.5,7.3-15.1,10.6-22.9,0-.1.1-.2.1-.4s1.4-3.1,2-4.7a426.6,426.6,0,0,0,27.5-102l-7.6,2.8Z"/><path class="faa49450-7cdc-419e-b0a6-18bd47261baf" d="M923.2,565.3h0v0Z"/><path class="faa49450-7cdc-419e-b0a6-18bd47261baf" d="M574.2,600.1c-11.4-.2-22.9-.3-34.2-.3-27.7,0-55.4.6-82.4,1.9H457l-23.5-.9,1.9,1.5c0,.2.1.4.1.6h0l.6,4.7c.1.4.1.9.2,1.3l.6,4c.1.4.1.8.2,1.2s.5,3.1.8,4.6h0l1.2,5.9a4.3,4.3,0,0,0,.2,1.1c32.5-1.9,66.2-2.9,100.7-2.9,15.8,0,31.5.2,47,.6l-3.9-7.1h0v-.2l-7.3-13.3Z"/><path class="faa49450-7cdc-419e-b0a6-18bd47261baf" d="M456.8,145.5c21.1,5.2,48.5,8.2,77.7,8.6H540c26.5,0,51.9-2.2,72.6-6.3,3.7-.7,7.2-1.5,10.6-2.3,8.7-2.2,31.7-7.9,40.7-22l-7-2.2h0l-6.7-2.1-2-.5-5.3-1.5-1.7-.5-6.3-1.7h0l-7.9-1.9c-15.5,5.3-45.3,10.9-87,10.9s-71.5-5.6-87-10.9l-7.9,1.9h0l-6.3,1.7-1.7.5-5.3,1.5-2,.5-6.7,2.1h0l-7,2.2C425.1,137.6,448.1,143.3,456.8,145.5Z"/><path class="faa49450-7cdc-419e-b0a6-18bd47261baf" d="M412.6,110a4.9,4.9,0,0,0-.1,1.2h0a22,22,0,0,0,.8,5.8l6.3-2,.4-.2c8.2-2.6,16.6-5,25.1-7.1a400.7,400.7,0,0,1,189.8,0c8.5,2.1,16.9,4.5,25.1,7.1l.4.2,6.3,2a22,22,0,0,0,.8-5.8h0a4.9,4.9,0,0,0-.1-1.2c-1.1-22.4-33.5-30.4-44.2-33.1-22.4-5.6-52-8.6-83.2-8.6s-60.8,3-83.2,8.6C446.1,79.6,413.7,87.6,412.6,110Z"/><path class="faa49450-7cdc-419e-b0a6-18bd47261baf" d="M417.2,863.3l7.2,2.3h0l6.7,2.1,1.7.5,7.1,1.9h.2l5,1.3h0l11.4,2.8c16.3-5,44.8-9.9,83.5-9.9s67.2,4.9,83.5,9.9l11.4-2.8h0l4.9-1.3h.3l7.1-1.9,1.7-.5,6.7-2h0l7.2-2.3c-9.6-12.9-31.2-18.3-39.6-20.4s-16.2-3.4-25.2-4.7a370.6,370.6,0,0,0-38.4-3.4c-6.4-.3-13-.5-19.6-.5-31.2,0-60.8,3.1-83.2,8.6C448.4,845,426.8,850.4,417.2,863.3Z"/><path class="faa49450-7cdc-419e-b0a6-18bd47261baf" d="M482.9,355.8l-20-36.6a84.3,84.3,0,0,0-.6,10.1v3.5h0v.4a2.8,2.8,0,0,1,.1.9c.1.9.1,1.9.2,2.8s.1.7.1,1.1l.3,2.8a1.5,1.5,0,0,1,.1.7l.6,3.4c.1.2.1.5.2.8l.6,2.6a3,3,0,0,1,.2,1l.8,2.6c.1.2.1.4.2.6a23.1,23.1,0,0,0,1,2.8h2.2l5,.2h.9Z"/><path class="faa49450-7cdc-419e-b0a6-18bd47261baf" d="M593.7,558.5l-20.3-37.1-6.3-1.6-3-.8-1.2-.3-2.8-.7-2.7-.7-2.7-.8-2.6-.7-2.7-.7-2.5-.7-2.6-.7-1.6-.4-9.4-2.7L559.7,559h9.1l15.9-.2h9Z"/><path class="faa49450-7cdc-419e-b0a6-18bd47261baf" d="M617.1,601.4H609c-6.2-.2-12.4-.5-18.6-.6l-8.1-.2,1.3,2.4,7.6,13.8,3.9,7.1,1.9,3.5,64.1,117.4,2.5-.4,4.9-.8h0l1.1-.2,2.4-.4,1.7-.3,2.3-.5,1.7-.4,2.2-.5,1.7-.3,2.1-.6,1.1-.2h0l6.9-1.9L634,632.3l-4-7.2-1.8-3.5-10.8-19.7Z"/><path class="faa49450-7cdc-419e-b0a6-18bd47261baf" d="M401.4,192l2.5,4.6,5.9,10.8,3.7,6.7h.1c1.9-2,3.9-4,5.9-5.9l1.9-1.7.4-.4,1.3-1.1,1.4-1.3a6.9,6.9,0,0,0,1.3-1.1l1.5-1.2,1.3-1.1,1.5-1.2,1.4-1.1,1.5-1.2,1.4-1,1.6-1.2,1.4-1,1.6-1.2,1.4-.9,1.7-1.2,1.4-.9.5-.3c4.1-2.7,8.3-5.2,12.7-7.7q-30.1,1.5-59,3.9l3.7,6.7Z"/><path class="faa49450-7cdc-419e-b0a6-18bd47261baf" d="M287.6,148.9A56,56,0,0,0,302,167.2a52.6,52.6,0,0,0,5.9,4.3,31.8,31.8,0,0,0,4,2.3,54.6,54.6,0,0,0,26.1,6.5,58.1,58.1,0,0,0,13.9-1.7l2.2,4.1,3.6,6.6,2.3,4.1,9.6,17.7,3.7,6.6,2.2,4.1,13.6,24.8c1.3-2.3,2.7-4.6,4.2-6.8l.7-1.2,2.7-3.9.8-1.2,2-2.8a6.4,6.4,0,0,0,1-1.3l2.3-3,.7-.8.2-.2,3-3.7h0l1.8-2-2.7-4.9-2.2-4-9.8-18-3.7-6.7-2.2-4.1-10-18.3a56.3,56.3,0,0,0,15.9-34.8c.1-1.5.2-3,.2-4.5h0a58.4,58.4,0,0,0-.5-7.3,56.4,56.4,0,0,0-7.8-21.8,46.3,46.3,0,0,0-3.1-4.6,56,56,0,0,0-97.2,53.2C286.1,145.5,286.8,147.2,287.6,148.9Zm24.3-24.8A26.1,26.1,0,0,1,338,98.3a25.8,25.8,0,0,1,13.7,4,25.3,25.3,0,0,1,5.9,4.9,31.4,31.4,0,0,1,3.3,4.8,25.8,25.8,0,0,1,3.1,12.3,25.5,25.5,0,0,1-4.8,14.9,8.3,8.3,0,0,1-.8,1.2,26,26,0,0,1-17.8,9.8H338A25.9,25.9,0,0,1,315.3,137a27.4,27.4,0,0,1-2.3-5.3,26,26,0,0,1-1.1-7.4Z"/><path class="faa49450-7cdc-419e-b0a6-18bd47261baf" d="M714.8,857.3h0l-3.4-6.1a388.7,388.7,0,0,1-38.7,16.1l-6.5,2.3-6.7,2.2q-12.2,3.8-24.6,6.9-16.9,4.2-34.5,6.9h-.1a400,400,0,0,1-60.3,4.6h0a400,400,0,0,1-60.3-4.6h-.1q-17.6-2.7-34.5-6.9-12.5-3.2-24.6-6.9l-6.7-2.2-6.5-2.3a396,396,0,0,1-127.5-74.6l-11.5-2.2-1.9-.4H266l-3.4-.7-1-.2-3.4-.7-.8-.2-3.5-.8h-.4l-3.7-.8-6.1-1.4-1.6-.4-5-1.2L223.8,780c4.6,5.1,9.4,10.2,14.3,15.1A425.9,425.9,0,0,0,476.5,915.5h.1a409.6,409.6,0,0,0,63.4,4.7h0a409.6,409.6,0,0,0,63.4-4.7h.1a425.9,425.9,0,0,0,102.7-28.9c6.6-2.8,13.2-5.8,19.7-9l-6.7-12.2Z"/><path class="faa49450-7cdc-419e-b0a6-18bd47261baf" d="M795.2,899.7a55.1,55.1,0,0,0-14.1,1.8L761.7,866l-3.2-5.9-11.3-20.6-3.2-5.9-3.4-6.1-4-7.4-1,.4-5.7,2-.8.3-4.2,1.3-3.4,1.1-4.4,1.3-2.8.8-6.9,1.9,7,12.7,3.3,6.2L721,854l11.2,20.5,3.2,6,19.8,36.1a56,56,0,1,0,40-16.9Zm0,82a26,26,0,1,1,26.1-26A26.1,26.1,0,0,1,795.2,981.7Z"/><path class="faa49450-7cdc-419e-b0a6-18bd47261baf" d="M972.4,445.4l-1.2-.5c.4,3.4.7,6.9,1,10.4.2,1.7.3,3.4.4,5l.3,4.1.3,5a14.8,14.8,0,0,1,.1,2.1c.1,1.3.2,2.7.2,4s.1,2.9.2,4.3c11.1,6.7,13.9,11.7,13.9,13.5s-2.8,6.7-13.9,13.5l-7.2,3.9-3.7,1.8-2.7,1.3c-5.1,2.3-10.8,4.5-17.1,6.8l-7.2,2.4-4.5,1.4c-18.7,5.9-41.3,11.3-67,16.2l-17.8,3.2-4.5.8-7.6,1.2c-32.4,5.2-68,9.4-105.9,12.6l-2,.2-14.4,1.2c-35.2,2.7-72.2,4.5-110.4,5.5h-4.3l-7.9.2-21.7.3H540c-122.7,0-237.9-9.1-324.3-25.5-25.7-4.9-48.3-10.3-67-16.2l-4.5-1.4-7.2-2.4c-6.3-2.3-12-4.5-17.1-6.8l-2.7-1.3-3.7-1.8-7.2-3.9C95.2,500,92.4,495,92.4,493.3s2.8-6.8,13.9-13.5c.1-1.4.1-2.9.2-4.3s.1-2.7.2-4a17,17,0,0,1,.1-2.2l.3-4.9.3-4.1c.1-1.7.2-3.3.4-5,.3-3.5.6-7,1-10.4l-1.2.5c-30.4,13.7-45.2,29.3-45.2,47.9s14.8,34.2,45.2,47.8l4.8,2.1,3.8,1.6c8.2,3.3,17.4,6.4,27.6,9.5l4.2,1.3,7.4,2.1c16.2,4.4,34.5,8.6,54.7,12.4,53,10,116.4,17.4,185.5,21.6q30,1.9,61.4,3h.5c27,.9,54.6,1.4,82.5,1.4q16.5,0,32.7-.3h15l20.9-.5h5l4.3-.2H623q31.3-1.1,61.5-3c26-1.6,51.2-3.6,75.3-6.1l3.6-.3,8.4-.9c28-3.1,54.5-6.7,79.1-10.9l5.6-1,7-1.2,6.4-1.2c20.2-3.8,38.5-8,54.7-12.4l7.4-2.1,4.2-1.3c10.2-3.1,19.4-6.2,27.6-9.5l3.8-1.6,4.8-2.1c30.4-13.6,45.2-29.3,45.2-47.8S1002.8,459.1,972.4,445.4Z"/><path class="faa49450-7cdc-419e-b0a6-18bd47261baf" d="M845.7,323.9a194.5,194.5,0,0,0-29.5-76.8l-4.2-6c-2.1-3-4.3-5.8-6.6-8.6-.5-.6-1.1-1.2-1.6-1.9a176.9,176.9,0,0,0-28.4-26.9c-4.3-3.2-8.6-6.3-13.2-9.2l-1.3-.8a215.4,215.4,0,0,0-30.3-15.6q-51.3-21.6-117.4-23.3h-11a339.1,339.1,0,0,0-67.2,6.4A284.5,284.5,0,0,0,482.1,177l-7.2,3.1-1.2.6c-5.2,2.4-10.2,4.9-15,7.6a173.9,173.9,0,0,0-32.5,23.4l-1.9,1.6c-2.5,2.4-4.9,4.8-7.3,7.4l-.2.2c-1.6,1.7-3.2,3.5-4.7,5.3s-2.1,2.4-3.1,3.7a144.3,144.3,0,0,0-9.1,12.6c-1,1.4-1.9,2.8-2.8,4.3l-4.1,7-1.8,3.4a163.9,163.9,0,0,0-19.5,77.9c0,4.5.2,8.9.6,13.3h1.4l5.6.6h0l2.1.2,4.1.4,5.1.5,4.2.3,5.2.5,4.1.4,5.4.4,4.1.3,5.5.4,4,.3,5.9.4,3.7.2,7.2.5h2.4l9.4.5h.5l6.9.3a89.7,89.7,0,0,1-3.4-34.3,80.4,80.4,0,0,1,1.9-11.1,26.8,26.8,0,0,1,.7-2.7c4.9-17.6,15.9-33.3,32.9-46.9q36-28.8,114.6-28.8,75.5,0,114.1,31.7,33.8,27.6,43.1,78.4h.1l6.8-1.1h.4l2.6-.4,4.5-.8,2.9-.5,4.1-.7,3-.5,4-.8,2.9-.5,3.9-.8,2.8-.5,4-.9,2.6-.5,4.3-.9,2.2-.5,6.3-1.4,5.7-1.3,1.6-.4,4.2-1,1.6-.4,5.4-1.4h0l6-1.6Z"/><path class="faa49450-7cdc-419e-b0a6-18bd47261baf" d="M431,620.1c-1-5.4-1.8-11-2.5-16.8v-.2l-8,.7c-17.2,1.2-34.1,2.7-50.4,4.5l-23.4,2v.6c.2,5.5.5,10.8,1,16.1.2,2.3.5,4.6.8,6.9s.6,4.6.9,6.8A215.6,215.6,0,0,0,382.7,728a202.7,202.7,0,0,0,31.5,37.4l9.1.7h2.3l6.7.4,6.1.4,8,.4,6.3.4,7.9.3,6.4.3,8.1.3,6.3.3,8.3.2,6.2.2,8.8.2H540c11.7,0,23.2-.1,34.7-.3l12.9-.3q45.1-1.2,87.8-4.7c10.9-.9,21.8-1.9,32.3-3.1,41.9-4.4,79.8-10.5,112.7-18l2.8-.7h.1l2.3-.5,8.3-2,4.2-6.2q20.4-31.5,26.8-65.8c.5-2.3.9-4.7,1.2-7s.6-3.8.8-5.8c.6-5.8,1-11.8,1.1-17.8v-2c0-1.8-.1-3.6-.1-5.3s-.1-3.3-.2-5a173.5,173.5,0,0,0-8.7-46.3l-1.3.2-5.7,1c-.1,0-.2,0-.2.1l-7.9,1.3-1.3.2-8,1.2-1.4.2-8,1.2h-.4l-8.4,1.2-1.7.2-8.4,1.2h-1.1l-8,1-1.3.2-8.7,1.1-1.7.2-9,1h0l-7.9.9a94.9,94.9,0,0,1,6.7,11c1.2,2.4,2.4,5,3.4,7.6s.9,2.5,1.3,3.8a85.9,85.9,0,0,1,4.1,20.4q.3,3.6.3,7.2c0,.4.1.7.1,1.1s-.1,3.2-.2,4.9c-.9,18.4-7,35.4-18.4,51.2s-31.2,30.6-56.5,40.4l-8.7,3.1-5.5,1.8-6.9,1.9c-6.1,1.6-12.3,2.9-18.7,4l-4.9.8-7.4,1a287.9,287.9,0,0,1-35.4,2.1q-55.9,0-100.5-19.4c-29.8-13-51.8-29.9-65.9-50.9-9.6-14.2-16.8-31.2-21.7-50.8-.5-2.3-1.1-4.6-1.6-6.9Z"/><path class="faa49450-7cdc-419e-b0a6-18bd47261baf" d="M767.9,798.2l-22.4,3.2-1.6.2-6.9.9-2.8.4-9.4,1.1h0c-10.4,1.2-21.4,2.3-32.5,3.4-48.4,4.4-99.7,6.6-152.3,6.6H523.8l-27-.5c19.2,6.5,40.3,11.2,63.3,14.3,12.2,1.6,25,2.7,38.3,3.4,9,.4,18.1.6,27.5.6a333.1,333.1,0,0,0,72.8-7.7l5.2-1.3c2.4-.5,4.7-1.2,7-1.8,5.7-1.5,11.2-3.2,16.7-5.1l5.6-2,6.6-2.5,12.3-5.2C757.5,803.7,762.8,801,767.9,798.2Z"/><path class="faa49450-7cdc-419e-b0a6-18bd47261baf" d="M756.3,475.8Q717,457.9,611.4,434.1l-26.1-6.2c-9.9-2.5-19.1-4.9-27.7-7.4l-.9-.2q-27-7.8-45.3-15.4l-2.2-.9c-2.8-1.2-5.4-2.5-7.9-3.7l-2.8-1.3-2.1-1.1-11,.2h-2.3l-14.7.4-10.9.3h-.6l-9.2-.4-3-.2-6.2-.3-3.5-.2-5.8-.4-3.5-.2-5.9-.4-3.3-.3-6.6-.5h-2.4l-9-.8h-1.6l-6.1-.5-1.6-.2-6.3-.6a10.8,10.8,0,0,0,.8,1.9c.6,1.5,1.3,3,2,4.5a141.9,141.9,0,0,0,9,16.7,7.6,7.6,0,0,1,.8,1.1l4.6,6.8,2.3,3q22.7,29.3,62.2,50,21.3,11.3,61.2,23.4l2.7.9,9.5,2.8c8.7,2.4,18,5,27.8,7.5l3,.8,9.2,2.3,13,3.2q90.3,21.6,116.6,31.9l5.7,2.3,12.6-1.1h1.9l4.8-.4,1.3-.2,14.9-1.3,1.3-.2,5.9-.6,2.1-.2,5-.5,2.3-.2,4.8-.6,2.4-.2,4.7-.6,2.3-.2,4.9-.6,2-.3,5.9-.7h.9l6.7-.9,1.7-.2,4.9-.7,2.4-.3,4.2-.6,2.6-.3,3.8-.6,2.7-.4,3.7-.6,2.7-.4,1.1-.2h0l7.8-1.2Q810.3,500.7,756.3,475.8Z"/><path class="faa49450-7cdc-419e-b0a6-18bd47261baf" d="M938.9,664.2c-1.3,3.1-2.7,6.2-4.1,9.3l-2,4.2-1.5,3.2c-.7,1.4-1.3,2.8-2,4.1l-.5,1.1-2.4,4.7a21.2,21.2,0,0,1-1.1,2.1c2.2,2.8,3.1,5.2,3.1,7,0,4.2-4.7,11.1-17.9,19.2a126.1,126.1,0,0,1-12.5,6.8l-1.8.8a259.3,259.3,0,0,1-37.1,13.9c-3.7,1.2-7.6,2.3-11.7,3.4l-2.1.6-7.2,1.9-10.9,2.7-2.3.5-3,.7c-33.4,7.7-71.8,13.8-113.4,18.2L676,771.7c-43,3.5-88.9,5.3-136,5.3-39.5,0-78.1-1.3-114.9-3.8h-2.3l-11.6-.9c-57.1-4.4-109.3-11.8-153.1-21.8-8.4-1.9-16.2-3.8-23.4-5.8l-2.1-.6c-4.1-1.1-8-2.2-11.6-3.4a256.6,256.6,0,0,1-37.2-13.9l-1.8-.8a126.1,126.1,0,0,1-12.5-6.8c-13.2-8.1-17.9-15-17.9-19.2,0-1.8.9-4.2,3.1-7a21.2,21.2,0,0,1-1.1-2.1l-2.4-4.7a4.7,4.7,0,0,0-.5-1c-.7-1.4-1.4-2.8-2-4.2l-1.5-3.2c-.7-1.4-1.4-2.9-2-4.3-1.4-3.1-2.8-6.1-4.1-9.2q-19.5,16.3-19.5,35.7c0,27.9,30.8,51.3,91.6,69.7l2,.6c11.1,3.4,23.1,6.5,36.2,9.5l16.3,3.5,2,.4,13.2,2.6c55.9,10.4,121.9,17.1,192.5,19.7h1.5c7,.3,14,.5,21.1.6,13.9.4,27.9.5,42,.5,52.8,0,104-2.2,151.7-6.6,10.9-1,21.7-2.1,32.3-3.4,14.3-1.6,28.2-3.5,41.6-5.5,6.2-1,12.3-1.9,18.3-3l1.4-.2,11.7-2.1,13.3-2.6,2-.4,16.3-3.5c13.1-3,25.1-6.1,36.2-9.5l2-.6c60.8-18.4,91.6-41.8,91.6-69.7Q958.4,680.6,938.9,664.2Z"/></g></svg>